<mxfile host="app.diagrams.net" modified="2022-04-18T19:05:49.679Z" agent="5.0 (X11; Linux x86_64) AppleWebKit/537.36 (KHTML, like Gecko) Chrome/99.0.4844.82 Safari/537.36" etag="uAAF6sC8lc_EbiZTw5Es" version="17.4.4" type="github">
  <diagram id="PwHjWjgbPjcunYKevSnQ" name="Page-1">
    <mxGraphModel dx="2062" dy="1121" grid="1" gridSize="10" guides="1" tooltips="1" connect="1" arrows="1" fold="1" page="1" pageScale="1" pageWidth="850" pageHeight="1100" math="0" shadow="0">
      <root>
        <mxCell id="0" />
        <mxCell id="1" parent="0" />
        <mxCell id="4-NkXw4DafUeV1T8jJpe-1" value="&lt;font style=&quot;font-size: 20px&quot;&gt;&lt;b&gt;Tile&lt;/b&gt;&lt;/font&gt;" style="rounded=1;whiteSpace=wrap;html=1;" vertex="1" parent="1">
          <mxGeometry x="30" y="50" width="120" height="60" as="geometry" />
        </mxCell>
        <mxCell id="4-NkXw4DafUeV1T8jJpe-16" style="edgeStyle=orthogonalEdgeStyle;rounded=0;orthogonalLoop=1;jettySize=auto;html=1;exitX=1;exitY=0.5;exitDx=0;exitDy=0;fontSize=12;" edge="1" parent="1" source="4-NkXw4DafUeV1T8jJpe-3" target="4-NkXw4DafUeV1T8jJpe-6">
          <mxGeometry relative="1" as="geometry" />
        </mxCell>
        <mxCell id="4-NkXw4DafUeV1T8jJpe-3" value="#Value" style="rounded=0;whiteSpace=wrap;html=1;fontSize=20;" vertex="1" parent="1">
          <mxGeometry x="30" y="240" width="120" height="60" as="geometry" />
        </mxCell>
        <mxCell id="4-NkXw4DafUeV1T8jJpe-17" style="edgeStyle=orthogonalEdgeStyle;rounded=0;orthogonalLoop=1;jettySize=auto;html=1;exitX=1;exitY=0.5;exitDx=0;exitDy=0;entryX=0;entryY=0.5;entryDx=0;entryDy=0;fontSize=12;" edge="1" parent="1" source="4-NkXw4DafUeV1T8jJpe-4" target="4-NkXw4DafUeV1T8jJpe-6">
          <mxGeometry relative="1" as="geometry" />
        </mxCell>
        <mxCell id="4-NkXw4DafUeV1T8jJpe-4" value="#Given?" style="rounded=0;whiteSpace=wrap;html=1;fontSize=20;" vertex="1" parent="1">
          <mxGeometry x="30" y="320" width="120" height="60" as="geometry" />
        </mxCell>
        <mxCell id="4-NkXw4DafUeV1T8jJpe-6" value="Can&#39;t change the value of a given tile" style="rounded=1;whiteSpace=wrap;html=1;fontSize=12;" vertex="1" parent="1">
          <mxGeometry x="180" y="280" width="120" height="60" as="geometry" />
        </mxCell>
        <mxCell id="4-NkXw4DafUeV1T8jJpe-18" style="edgeStyle=orthogonalEdgeStyle;rounded=0;orthogonalLoop=1;jettySize=auto;html=1;exitX=1;exitY=0.5;exitDx=0;exitDy=0;fontSize=12;" edge="1" parent="1" source="4-NkXw4DafUeV1T8jJpe-7" target="4-NkXw4DafUeV1T8jJpe-8">
          <mxGeometry relative="1" as="geometry" />
        </mxCell>
        <mxCell id="4-NkXw4DafUeV1T8jJpe-7" value="#to_s" style="rounded=0;whiteSpace=wrap;html=1;fontSize=20;" vertex="1" parent="1">
          <mxGeometry x="30" y="400" width="120" height="60" as="geometry" />
        </mxCell>
        <mxCell id="4-NkXw4DafUeV1T8jJpe-8" value="Use colorize here to distinguish between Given &amp;amp; non given" style="rounded=1;whiteSpace=wrap;html=1;fontSize=12;" vertex="1" parent="1">
          <mxGeometry x="180" y="400" width="120" height="60" as="geometry" />
        </mxCell>
        <mxCell id="4-NkXw4DafUeV1T8jJpe-19" style="edgeStyle=orthogonalEdgeStyle;rounded=0;orthogonalLoop=1;jettySize=auto;html=1;exitX=1;exitY=0.5;exitDx=0;exitDy=0;entryX=0;entryY=0.5;entryDx=0;entryDy=0;fontSize=12;" edge="1" parent="1" source="4-NkXw4DafUeV1T8jJpe-9" target="4-NkXw4DafUeV1T8jJpe-10">
          <mxGeometry relative="1" as="geometry" />
        </mxCell>
        <mxCell id="4-NkXw4DafUeV1T8jJpe-9" value="&lt;font style=&quot;font-size: 20px&quot;&gt;&lt;b&gt;Board&lt;/b&gt;&lt;/font&gt;" style="rounded=1;whiteSpace=wrap;html=1;" vertex="1" parent="1">
          <mxGeometry x="340" y="40" width="120" height="60" as="geometry" />
        </mxCell>
        <mxCell id="4-NkXw4DafUeV1T8jJpe-10" value="Should be a grid of tiles" style="rounded=1;whiteSpace=wrap;html=1;fontSize=12;" vertex="1" parent="1">
          <mxGeometry x="490" y="40" width="120" height="60" as="geometry" />
        </mxCell>
        <mxCell id="4-NkXw4DafUeV1T8jJpe-15" style="edgeStyle=orthogonalEdgeStyle;rounded=0;orthogonalLoop=1;jettySize=auto;html=1;exitX=1;exitY=0.5;exitDx=0;exitDy=0;fontSize=12;" edge="1" parent="1" source="4-NkXw4DafUeV1T8jJpe-11" target="4-NkXw4DafUeV1T8jJpe-12">
          <mxGeometry relative="1" as="geometry" />
        </mxCell>
        <mxCell id="4-NkXw4DafUeV1T8jJpe-11" value="#Initialize" style="rounded=0;whiteSpace=wrap;html=1;fontSize=20;" vertex="1" parent="1">
          <mxGeometry x="340" y="280" width="120" height="60" as="geometry" />
        </mxCell>
        <mxCell id="4-NkXw4DafUeV1T8jJpe-12" value="Accept grid as argument" style="rounded=1;whiteSpace=wrap;html=1;fontSize=12;" vertex="1" parent="1">
          <mxGeometry x="500" y="280" width="120" height="60" as="geometry" />
        </mxCell>
        <mxCell id="4-NkXw4DafUeV1T8jJpe-13" value="#grid" style="rounded=0;whiteSpace=wrap;html=1;fontSize=20;" vertex="1" parent="1">
          <mxGeometry x="340" y="200" width="120" height="60" as="geometry" />
        </mxCell>
        <mxCell id="4-NkXw4DafUeV1T8jJpe-22" style="edgeStyle=orthogonalEdgeStyle;rounded=0;orthogonalLoop=1;jettySize=auto;html=1;exitX=1;exitY=0.5;exitDx=0;exitDy=0;fontSize=12;" edge="1" parent="1" source="4-NkXw4DafUeV1T8jJpe-14" target="4-NkXw4DafUeV1T8jJpe-20">
          <mxGeometry relative="1" as="geometry" />
        </mxCell>
        <mxCell id="4-NkXw4DafUeV1T8jJpe-14" value="##from_file" style="rounded=0;whiteSpace=wrap;html=1;fontSize=20;" vertex="1" parent="1">
          <mxGeometry x="340" y="120" width="120" height="60" as="geometry" />
        </mxCell>
        <mxCell id="4-NkXw4DafUeV1T8jJpe-20" value="Read a file &amp;amp; parse into 2D array containing tile instances" style="rounded=1;whiteSpace=wrap;html=1;fontSize=12;" vertex="1" parent="1">
          <mxGeometry x="490" y="120" width="120" height="60" as="geometry" />
        </mxCell>
        <mxCell id="4-NkXw4DafUeV1T8jJpe-21" value="#Initialize" style="rounded=0;whiteSpace=wrap;html=1;fontSize=20;" vertex="1" parent="1">
          <mxGeometry x="30" y="150" width="120" height="60" as="geometry" />
        </mxCell>
        <mxCell id="4-NkXw4DafUeV1T8jJpe-29" style="edgeStyle=orthogonalEdgeStyle;rounded=0;orthogonalLoop=1;jettySize=auto;html=1;exitX=1;exitY=0.5;exitDx=0;exitDy=0;entryX=0;entryY=0.5;entryDx=0;entryDy=0;fontSize=12;" edge="1" parent="1" source="4-NkXw4DafUeV1T8jJpe-23" target="4-NkXw4DafUeV1T8jJpe-26">
          <mxGeometry relative="1" as="geometry" />
        </mxCell>
        <mxCell id="4-NkXw4DafUeV1T8jJpe-23" value="#update" style="rounded=0;whiteSpace=wrap;html=1;fontSize=20;" vertex="1" parent="1">
          <mxGeometry x="340" y="370" width="120" height="60" as="geometry" />
        </mxCell>
        <mxCell id="4-NkXw4DafUeV1T8jJpe-31" style="edgeStyle=orthogonalEdgeStyle;rounded=0;orthogonalLoop=1;jettySize=auto;html=1;exitX=1;exitY=0.5;exitDx=0;exitDy=0;entryX=0;entryY=0.5;entryDx=0;entryDy=0;fontSize=12;" edge="1" parent="1" source="4-NkXw4DafUeV1T8jJpe-24" target="4-NkXw4DafUeV1T8jJpe-30">
          <mxGeometry relative="1" as="geometry" />
        </mxCell>
        <mxCell id="4-NkXw4DafUeV1T8jJpe-24" value="#render" style="rounded=0;whiteSpace=wrap;html=1;fontSize=20;" vertex="1" parent="1">
          <mxGeometry x="340" y="450" width="120" height="60" as="geometry" />
        </mxCell>
        <mxCell id="4-NkXw4DafUeV1T8jJpe-33" style="edgeStyle=orthogonalEdgeStyle;rounded=0;orthogonalLoop=1;jettySize=auto;html=1;exitX=1;exitY=0.5;exitDx=0;exitDy=0;entryX=0;entryY=0.5;entryDx=0;entryDy=0;fontSize=12;" edge="1" parent="1" source="4-NkXw4DafUeV1T8jJpe-25" target="4-NkXw4DafUeV1T8jJpe-32">
          <mxGeometry relative="1" as="geometry" />
        </mxCell>
        <mxCell id="4-NkXw4DafUeV1T8jJpe-25" value="#solved?" style="rounded=0;whiteSpace=wrap;html=1;fontSize=20;" vertex="1" parent="1">
          <mxGeometry x="340" y="530" width="120" height="60" as="geometry" />
        </mxCell>
        <mxCell id="4-NkXw4DafUeV1T8jJpe-26" value="Accept &lt;b&gt;position&lt;/b&gt; - update tile" style="rounded=1;whiteSpace=wrap;html=1;fontSize=12;" vertex="1" parent="1">
          <mxGeometry x="500" y="370" width="120" height="60" as="geometry" />
        </mxCell>
        <mxCell id="4-NkXw4DafUeV1T8jJpe-27" value="#[ ]" style="rounded=0;whiteSpace=wrap;html=1;fontSize=20;" vertex="1" parent="1">
          <mxGeometry x="340" y="610" width="120" height="60" as="geometry" />
        </mxCell>
        <mxCell id="4-NkXw4DafUeV1T8jJpe-28" value="#= [ ]" style="rounded=0;whiteSpace=wrap;html=1;fontSize=20;" vertex="1" parent="1">
          <mxGeometry x="340" y="690" width="120" height="60" as="geometry" />
        </mxCell>
        <mxCell id="4-NkXw4DafUeV1T8jJpe-30" value="Display board in current state" style="rounded=1;whiteSpace=wrap;html=1;fontSize=12;" vertex="1" parent="1">
          <mxGeometry x="500" y="450" width="120" height="60" as="geometry" />
        </mxCell>
        <mxCell id="4-NkXw4DafUeV1T8jJpe-32" value="= Game over" style="rounded=1;whiteSpace=wrap;html=1;fontSize=12;" vertex="1" parent="1">
          <mxGeometry x="500" y="530" width="120" height="60" as="geometry" />
        </mxCell>
        <mxCell id="4-NkXw4DafUeV1T8jJpe-35" value="Helpers" style="shape=process;whiteSpace=wrap;html=1;backgroundOutline=1;fontSize=12;" vertex="1" parent="1">
          <mxGeometry x="340" y="760" width="120" height="20" as="geometry" />
        </mxCell>
        <mxCell id="4-NkXw4DafUeV1T8jJpe-36" value="#row_solved?" style="rounded=0;whiteSpace=wrap;html=1;fontSize=20;" vertex="1" parent="1">
          <mxGeometry x="340" y="800" width="120" height="60" as="geometry" />
        </mxCell>
        <mxCell id="4-NkXw4DafUeV1T8jJpe-37" value="#col_solved?" style="rounded=0;whiteSpace=wrap;html=1;fontSize=20;" vertex="1" parent="1">
          <mxGeometry x="340" y="880" width="120" height="60" as="geometry" />
        </mxCell>
        <mxCell id="4-NkXw4DafUeV1T8jJpe-38" value="# 3x3solved?" style="rounded=0;whiteSpace=wrap;html=1;fontSize=20;" vertex="1" parent="1">
          <mxGeometry x="340" y="960" width="130" height="60" as="geometry" />
        </mxCell>
        <mxCell id="4-NkXw4DafUeV1T8jJpe-39" value="&lt;font style=&quot;font-size: 20px&quot;&gt;&lt;b&gt;Game&lt;/b&gt;&lt;/font&gt;" style="rounded=1;whiteSpace=wrap;html=1;" vertex="1" parent="1">
          <mxGeometry x="680" y="40" width="120" height="60" as="geometry" />
        </mxCell>
        <mxCell id="4-NkXw4DafUeV1T8jJpe-40" value="@position" style="rounded=0;whiteSpace=wrap;html=1;fontSize=20;" vertex="1" parent="1">
          <mxGeometry x="340" y="330" width="120" height="30" as="geometry" />
        </mxCell>
        <mxCell id="4-NkXw4DafUeV1T8jJpe-41" value="#Initialize" style="rounded=0;whiteSpace=wrap;html=1;fontSize=20;" vertex="1" parent="1">
          <mxGeometry x="680" y="110" width="120" height="60" as="geometry" />
        </mxCell>
        <mxCell id="4-NkXw4DafUeV1T8jJpe-42" value="@board" style="rounded=0;whiteSpace=wrap;html=1;fontSize=20;" vertex="1" parent="1">
          <mxGeometry x="680" y="160" width="120" height="30" as="geometry" />
        </mxCell>
        <mxCell id="4-NkXw4DafUeV1T8jJpe-43" value="#board-player interaction" style="rounded=0;whiteSpace=wrap;html=1;fontSize=20;" vertex="1" parent="1">
          <mxGeometry x="680" y="210" width="120" height="90" as="geometry" />
        </mxCell>
        <mxCell id="4-NkXw4DafUeV1T8jJpe-46" style="edgeStyle=orthogonalEdgeStyle;rounded=0;orthogonalLoop=1;jettySize=auto;html=1;exitX=1;exitY=0.5;exitDx=0;exitDy=0;entryX=0;entryY=0.5;entryDx=0;entryDy=0;fontSize=12;" edge="1" parent="1" source="4-NkXw4DafUeV1T8jJpe-44" target="4-NkXw4DafUeV1T8jJpe-45">
          <mxGeometry relative="1" as="geometry" />
        </mxCell>
        <mxCell id="4-NkXw4DafUeV1T8jJpe-44" value="#play (loop)" style="rounded=0;whiteSpace=wrap;html=1;fontSize=20;" vertex="1" parent="1">
          <mxGeometry x="680" y="310" width="120" height="60" as="geometry" />
        </mxCell>
        <mxCell id="4-NkXw4DafUeV1T8jJpe-45" value="Runs until &lt;b&gt;Solved?&lt;/b&gt;" style="rounded=1;whiteSpace=wrap;html=1;fontSize=12;" vertex="1" parent="1">
          <mxGeometry x="830" y="310" width="120" height="60" as="geometry" />
        </mxCell>
        <mxCell id="4-NkXw4DafUeV1T8jJpe-49" value="&lt;b&gt;Render&lt;/b&gt;" style="rounded=1;whiteSpace=wrap;html=1;fontSize=12;" vertex="1" parent="1">
          <mxGeometry x="830" y="380" width="120" height="60" as="geometry" />
        </mxCell>
        <mxCell id="4-NkXw4DafUeV1T8jJpe-52" style="edgeStyle=orthogonalEdgeStyle;rounded=0;orthogonalLoop=1;jettySize=auto;html=1;exitX=1;exitY=0.5;exitDx=0;exitDy=0;entryX=0;entryY=0.5;entryDx=0;entryDy=0;fontSize=12;" edge="1" parent="1" source="4-NkXw4DafUeV1T8jJpe-50" target="4-NkXw4DafUeV1T8jJpe-51">
          <mxGeometry relative="1" as="geometry" />
        </mxCell>
        <mxCell id="4-NkXw4DafUeV1T8jJpe-50" value="#prompt" style="rounded=1;whiteSpace=wrap;html=1;fontSize=12;" vertex="1" parent="1">
          <mxGeometry x="830" y="450" width="120" height="60" as="geometry" />
        </mxCell>
        <mxCell id="4-NkXw4DafUeV1T8jJpe-54" style="edgeStyle=orthogonalEdgeStyle;rounded=0;orthogonalLoop=1;jettySize=auto;html=1;exitX=0.5;exitY=1;exitDx=0;exitDy=0;entryX=1;entryY=0.5;entryDx=0;entryDy=0;fontSize=12;" edge="1" parent="1" source="4-NkXw4DafUeV1T8jJpe-51" target="4-NkXw4DafUeV1T8jJpe-53">
          <mxGeometry relative="1" as="geometry" />
        </mxCell>
        <mxCell id="4-NkXw4DafUeV1T8jJpe-51" value="position&lt;br&gt;value" style="rounded=1;whiteSpace=wrap;html=1;fontSize=12;" vertex="1" parent="1">
          <mxGeometry x="990" y="450" width="120" height="60" as="geometry" />
        </mxCell>
        <mxCell id="4-NkXw4DafUeV1T8jJpe-53" value="update pos &amp;amp; value for tile selected" style="rounded=1;whiteSpace=wrap;html=1;fontSize=12;" vertex="1" parent="1">
          <mxGeometry x="830" y="530" width="120" height="60" as="geometry" />
        </mxCell>
        <mxCell id="4-NkXw4DafUeV1T8jJpe-55" value="#validate_input" style="rounded=0;whiteSpace=wrap;html=1;fontSize=20;" vertex="1" parent="1">
          <mxGeometry x="680" y="610" width="140" height="60" as="geometry" />
        </mxCell>
      </root>
    </mxGraphModel>
  </diagram>
</mxfile>
